<svg version="1.1" xmlns="http://www.w3.org/2000/svg" viewBox="0 0 771.3711652678544 341.7143647837157" width="771.3711652678544" height="341.7143647837157" filter="invert(93%) hue-rotate(180deg)">
  <!-- svg-source:excalidraw -->
  
  <defs>
    <style class="style-fonts">
      @font-face {
        font-family: "Virgil";
        src: url("https://excalidraw.com/Virgil.woff2");
      }
      @font-face {
        font-family: "Cascadia";
        src: url("https://excalidraw.com/Cascadia.woff2");
      }
    </style>
    
  </defs>
  <g stroke-linecap="round" transform="translate(31.324147615357333 11.24436006419512) rotate(0 41.600006103515625 66.80000305175781)"><path d="M0 0 C28.36 0, 56.72 0, 83.2 0 M0 0 C22.07 0, 44.14 0, 83.2 0 M83.2 0 C83.2 37.72, 83.2 75.44, 83.2 133.6 M83.2 0 C83.2 31.02, 83.2 62.05, 83.2 133.6 M83.2 133.6 C61.06 133.6, 38.93 133.6, 0 133.6 M83.2 133.6 C54.05 133.6, 24.91 133.6, 0 133.6 M0 133.6 C0 91.5, 0 49.4, 0 0 M0 133.6 C0 100.86, 0 68.12, 0 0" stroke="#1e1e1e" stroke-width="1" fill="none"></path></g><g stroke-linecap="round" transform="translate(32.12416592590421 11.24436006419512) rotate(0 29.599990844726562 40.80000305175781)"><path d="M0 0 C17.23 0, 34.46 0, 59.2 0 M0 0 C20.79 0, 41.59 0, 59.2 0 M59.2 0 C59.2 17.79, 59.2 35.57, 59.2 81.6 M59.2 0 C59.2 31.7, 59.2 63.39, 59.2 81.6 M59.2 81.6 C42.31 81.6, 25.43 81.6, 0 81.6 M59.2 81.6 C38.5 81.6, 17.8 81.6, 0 81.6 M0 81.6 C0 56.57, 0 31.54, 0 0 M0 81.6 C0 50.68, 0 19.75, 0 0" stroke="#1e1e1e" stroke-width="1" fill="none"></path></g><g stroke-linecap="round" transform="translate(31.815749592607517 107.93406842957074) rotate(0 9.648000058593823 18.652809927734552)"><path d="M0 0 C5.32 0, 10.65 0, 19.3 0 M0 0 C7.56 0, 15.13 0, 19.3 0 M19.3 0 C19.3 12, 19.3 24, 19.3 37.31 M19.3 0 C19.3 13.08, 19.3 26.16, 19.3 37.31 M19.3 37.31 C14.27 37.31, 9.25 37.31, 0 37.31 M19.3 37.31 C12.42 37.31, 5.54 37.31, 0 37.31 M0 37.31 C0 22.59, 0 7.88, 0 0 M0 37.31 C0 29.2, 0 21.1, 0 0" stroke="#1e1e1e" stroke-width="1" fill="none"></path></g><g stroke-linecap="round" transform="translate(678.1711530608231 10.288879919017461) rotate(0 41.600006103515625 66.80000305175778)"><path d="M0 0 C21.48 0, 42.96 0, 83.2 0 M0 0 C31.35 0, 62.7 0, 83.2 0 M83.2 0 C83.2 29.4, 83.2 58.8, 83.2 133.6 M83.2 0 C83.2 33.74, 83.2 67.47, 83.2 133.6 M83.2 133.6 C53.04 133.6, 22.88 133.6, 0 133.6 M83.2 133.6 C63.37 133.6, 43.55 133.6, 0 133.6 M0 133.6 C0 95.81, 0 58.02, 0 0 M0 133.6 C0 87.12, 0 40.63, 0 0" stroke="#1e1e1e" stroke-width="1" fill="none"></path></g><g stroke-linecap="round" transform="translate(701.2376285768091 10) rotate(0 29.599990844726562 40.80000305175781)"><path d="M0 0 C16.39 0, 32.78 0, 59.2 0 M0 0 C15.32 0, 30.63 0, 59.2 0 M59.2 0 C59.2 20.31, 59.2 40.62, 59.2 81.6 M59.2 0 C59.2 20.17, 59.2 40.34, 59.2 81.6 M59.2 81.6 C42.13 81.6, 25.05 81.6, 0 81.6 M59.2 81.6 C38.58 81.6, 17.95 81.6, 0 81.6 M0 81.6 C0 61.42, 0 41.24, 0 0 M0 81.6 C0 59.83, 0 38.06, 0 0" stroke="#1e1e1e" stroke-width="1" fill="none"></path></g><g stroke-linecap="round" transform="translate(740.3267773872581 106.82460198559795) rotate(179.1776161671723 10.323329532684284 18.044045573947926)"><path d="M0 0 C6.49 0, 12.97 0, 20.65 0 M0 0 C4.52 0, 9.03 0, 20.65 0 M20.65 0 C20.65 10.53, 20.65 21.06, 20.65 36.09 M20.65 0 C20.65 13.06, 20.65 26.12, 20.65 36.09 M20.65 36.09 C13.42 36.09, 6.19 36.09, 0 36.09 M20.65 36.09 C13.83 36.09, 7.02 36.09, 0 36.09 M0 36.09 C0 27.12, 0 18.15, 0 0 M0 36.09 C0 28.32, 0 20.56, 0 0" stroke="#1e1e1e" stroke-width="1" fill="none"></path></g><g stroke-linecap="round" transform="translate(731.32410410175 107.11547233793783) rotate(179.1776161671723 3.859190208984387 18.009619738281515)"><path d="M0 0 C2.4 0, 4.8 0, 7.72 0 M0 0 C2.58 0, 5.16 0, 7.72 0 M7.72 0 C7.72 12.81, 7.72 25.62, 7.72 36.02 M7.72 0 C7.72 11.37, 7.72 22.73, 7.72 36.02 M7.72 36.02 C4.79 36.02, 1.85 36.02, 0 36.02 M7.72 36.02 C5.91 36.02, 4.1 36.02, 0 36.02 M0 36.02 C0 28.67, 0 21.32, 0 0 M0 36.02 C0 22.79, 0 9.57, 0 0" stroke="#1e1e1e" stroke-width="1" fill="none"></path></g><g stroke-linecap="round" transform="translate(727.2626054928564 107.01855980502057) rotate(179.1776161671723 3.93040422237641 18.160676916788304)"><path d="M0 0 C2.11 0, 4.22 0, 7.86 0 M0 0 C2.71 0, 5.43 0, 7.86 0 M7.86 0 C7.86 14.04, 7.86 28.08, 7.86 36.32 M7.86 0 C7.86 13.12, 7.86 26.24, 7.86 36.32 M7.86 36.32 C5.28 36.32, 2.7 36.32, 0 36.32 M7.86 36.32 C6.15 36.32, 4.43 36.32, 0 36.32 M0 36.32 C0 28.07, 0 19.82, 0 0 M0 36.32 C0 26.36, 0 16.4, 0 0" stroke="#1e1e1e" stroke-width="1" fill="none"></path></g><g stroke-linecap="round" transform="translate(720.333388507433 107.27974806515442) rotate(179.1776161671723 3.407284009004684 18.252297887363284)"><path d="M0 0 C1.94 0, 3.88 0, 6.81 0 M0 0 C1.83 0, 3.66 0, 6.81 0 M6.81 0 C6.81 7.48, 6.81 14.96, 6.81 36.5 M6.81 0 C6.81 7.35, 6.81 14.7, 6.81 36.5 M6.81 36.5 C4.79 36.5, 2.77 36.5, 0 36.5 M6.81 36.5 C4.36 36.5, 1.91 36.5, 0 36.5 M0 36.5 C0 23.31, 0 10.11, 0 0 M0 36.5 C0 22.59, 0 8.68, 0 0" stroke="#1e1e1e" stroke-width="1" fill="none"></path></g><g stroke-linecap="round" transform="translate(723.7972500729318 107.04419416578901) rotate(179.1776161671723 3.443096270212777 18.317503236964342)"><path d="M0 0 C1.98 0, 3.96 0, 6.89 0 M0 0 C2.17 0, 4.34 0, 6.89 0 M6.89 0 C6.89 12.43, 6.89 24.86, 6.89 36.64 M6.89 0 C6.89 7.45, 6.89 14.9, 6.89 36.64 M6.89 36.64 C5 36.64, 3.1 36.64, 0 36.64 M6.89 36.64 C4.3 36.64, 1.72 36.64, 0 36.64 M0 36.64 C0 28.76, 0 20.89, 0 0 M0 36.64 C0 27.78, 0 18.92, 0 0" stroke="#1e1e1e" stroke-width="1" fill="none"></path></g><g stroke-linecap="round" transform="translate(720.5107552650779 106.96108957045897) rotate(0 9.45503686218683 8.698955703365073)"><path d="M0 0 C6.65 0, 13.3 0, 18.91 0 M0 0 C5.48 0, 10.96 0, 18.91 0 M18.91 0 C18.91 6.11, 18.91 12.22, 18.91 17.4 M18.91 0 C18.91 4.5, 18.91 9.01, 18.91 17.4 M18.91 17.4 C14.7 17.4, 10.49 17.4, 0 17.4 M18.91 17.4 C12.86 17.4, 6.81 17.4, 0 17.4 M0 17.4 C0 12.82, 0 8.24, 0 0 M0 17.4 C0 12.83, 0 8.27, 0 0" stroke="#1e1e1e" stroke-width="1" fill="none"></path></g><g stroke-linecap="round" transform="translate(720.4036649011707 125.01082063121055) rotate(0 9.737133281406841 9.425226713427719)"><path d="M0 0 C7.48 0, 14.96 0, 19.47 0 M0 0 C5.29 0, 10.59 0, 19.47 0 M19.47 0 C19.47 6.22, 19.47 12.45, 19.47 18.85 M19.47 0 C19.47 6.72, 19.47 13.44, 19.47 18.85 M19.47 18.85 C12.92 18.85, 6.37 18.85, 0 18.85 M19.47 18.85 C11.72 18.85, 3.97 18.85, 0 18.85 M0 18.85 C0 14.64, 0 10.42, 0 0 M0 18.85 C0 14.54, 0 10.22, 0 0" stroke="#1e1e1e" stroke-width="1" fill="none"></path></g><g stroke-linecap="round" transform="translate(61.27052389780988 108.24176764502954) rotate(179.1776161671723 3.85919020898433 18.009619738281515)"><path d="M0 0 C2.63 0, 5.26 0, 7.72 0 M0 0 C3 0, 6 0, 7.72 0 M7.72 0 C7.72 12.35, 7.72 24.69, 7.72 36.02 M7.72 0 C7.72 7.81, 7.72 15.62, 7.72 36.02 M7.72 36.02 C5.24 36.02, 2.76 36.02, 0 36.02 M7.72 36.02 C5.15 36.02, 2.58 36.02, 0 36.02 M0 36.02 C0 26.94, 0 17.87, 0 0 M0 36.02 C0 24.41, 0 12.8, 0 0" stroke="#1e1e1e" stroke-width="1" fill="none"></path></g><g stroke-linecap="round" transform="translate(57.20902528891634 108.14485511211251) rotate(179.1776161671723 3.930404222376353 18.160676916788304)"><path d="M0 0 C2.61 0, 5.21 0, 7.86 0 M0 0 C1.84 0, 3.67 0, 7.86 0 M7.86 0 C7.86 11.59, 7.86 23.17, 7.86 36.32 M7.86 0 C7.86 11.62, 7.86 23.25, 7.86 36.32 M7.86 36.32 C5.47 36.32, 3.08 36.32, 0 36.32 M7.86 36.32 C6.19 36.32, 4.52 36.32, 0 36.32 M0 36.32 C0 28.45, 0 20.58, 0 0 M0 36.32 C0 25.88, 0 15.44, 0 0" stroke="#1e1e1e" stroke-width="1" fill="none"></path></g><g stroke-linecap="round" transform="translate(50.27980830349293 108.40604337224613) rotate(179.1776161671723 3.407284009004627 18.252297887363284)"><path d="M0 0 C1.56 0, 3.12 0, 6.81 0 M0 0 C1.57 0, 3.14 0, 6.81 0 M6.81 0 C6.81 14.59, 6.81 29.18, 6.81 36.5 M6.81 0 C6.81 13.28, 6.81 26.56, 6.81 36.5 M6.81 36.5 C5.34 36.5, 3.87 36.5, 0 36.5 M6.81 36.5 C5.24 36.5, 3.66 36.5, 0 36.5 M0 36.5 C0 28.66, 0 20.82, 0 0 M0 36.5 C0 25.68, 0 14.86, 0 0" stroke="#1e1e1e" stroke-width="1" fill="none"></path></g><g stroke-linecap="round" transform="translate(53.743669868991674 108.17048947288094) rotate(179.1776161671723 3.4430962702127204 18.317503236964342)"><path d="M0 0 C2.63 0, 5.25 0, 6.89 0 M0 0 C2.05 0, 4.09 0, 6.89 0 M6.89 0 C6.89 11.02, 6.89 22.04, 6.89 36.64 M6.89 0 C6.89 7.62, 6.89 15.23, 6.89 36.64 M6.89 36.64 C4.83 36.64, 2.77 36.64, 0 36.64 M6.89 36.64 C4.95 36.64, 3.02 36.64, 0 36.64 M0 36.64 C0 26.63, 0 16.62, 0 0 M0 36.64 C0 26.96, 0 17.29, 0 0" stroke="#1e1e1e" stroke-width="1" fill="none"></path></g><g stroke-linecap="round" transform="translate(50.45717506113783 108.08738487755068) rotate(0 9.45503686218683 8.698955703365073)"><path d="M0 0 C5.7 0, 11.39 0, 18.91 0 M0 0 C5.94 0, 11.89 0, 18.91 0 M18.91 0 C18.91 6.58, 18.91 13.16, 18.91 17.4 M18.91 0 C18.91 6.02, 18.91 12.03, 18.91 17.4 M18.91 17.4 C14.9 17.4, 10.9 17.4, 0 17.4 M18.91 17.4 C14.02 17.4, 9.13 17.4, 0 17.4 M0 17.4 C0 11.93, 0 6.45, 0 0 M0 17.4 C0 10.75, 0 4.1, 0 0" stroke="#1e1e1e" stroke-width="1" fill="none"></path></g><g stroke-linecap="round" transform="translate(50.35008469723061 126.13711593830249) rotate(0 9.506432165039598 9.425226713427719)"><path d="M0 0 C5.61 0, 11.22 0, 19.01 0 M0 0 C6.45 0, 12.91 0, 19.01 0 M19.01 0 C19.01 6.82, 19.01 13.63, 19.01 18.85 M19.01 0 C19.01 4.16, 19.01 8.32, 19.01 18.85 M19.01 18.85 C13.93 18.85, 8.85 18.85, 0 18.85 M19.01 18.85 C13.62 18.85, 8.23 18.85, 0 18.85 M0 18.85 C0 13.35, 0 7.85, 0 0 M0 18.85 C0 14.39, 0 9.93, 0 0" stroke="#1e1e1e" stroke-width="1" fill="none"></path></g><g stroke-linecap="round" transform="translate(125.92749148802574 37.20907125774346) rotate(89.69198250086802 29.59999084472659 40.800003051757784)"><path d="M0 0 C17.42 0, 34.85 0, 59.2 0 M0 0 C12.48 0, 24.95 0, 59.2 0 M59.2 0 C59.2 27.41, 59.2 54.81, 59.2 81.6 M59.2 0 C59.2 19.3, 59.2 38.6, 59.2 81.6 M59.2 81.6 C39.78 81.6, 20.37 81.6, 0 81.6 M59.2 81.6 C46.31 81.6, 33.41 81.6, 0 81.6 M0 81.6 C0 52.98, 0 24.36, 0 0 M0 81.6 C0 64, 0 46.4, 0 0" stroke="#1e1e1e" stroke-width="1" fill="none"></path></g><g stroke-linecap="round" transform="translate(115.20327662179693 48.37863303940247) rotate(0 281.38946953774615 38.35024468621165)"><path d="M0 0 C187.26 0, 374.53 0, 562.78 0 M0 0 C179.32 0, 358.65 0, 562.78 0 M562.78 0 C562.78 18.98, 562.78 37.95, 562.78 76.7 M562.78 0 C562.78 15.68, 562.78 31.35, 562.78 76.7 M562.78 76.7 C342.8 76.7, 122.82 76.7, 0 76.7 M562.78 76.7 C418.3 76.7, 273.82 76.7, 0 76.7 M0 76.7 C0 56.9, 0 37.1, 0 0 M0 76.7 C0 58.71, 0 40.73, 0 0" stroke="#1e1e1e" stroke-width="1" fill="none"></path></g><g stroke-linecap="round" transform="translate(207.19517649760917 36.895095731454774) rotate(89.69198250086802 29.599990844726562 40.800003051757784)"><path d="M0 0 C14.73 0, 29.46 0, 59.2 0 M0 0 C13.12 0, 26.24 0, 59.2 0 M59.2 0 C59.2 23.99, 59.2 47.99, 59.2 81.6 M59.2 0 C59.2 24.37, 59.2 48.74, 59.2 81.6 M59.2 81.6 C35.75 81.6, 12.31 81.6, 0 81.6 M59.2 81.6 C45.41 81.6, 31.62 81.6, 0 81.6 M0 81.6 C0 59.56, 0 37.52, 0 0 M0 81.6 C0 56.85, 0 32.1, 0 0" stroke="#1e1e1e" stroke-width="1" fill="none"></path></g><g stroke-linecap="round" transform="translate(288.9690264880046 36.997319263294855) rotate(89.69198250086802 29.599990844726562 40.800003051757784)"><path d="M0 0 C17.8 0, 35.6 0, 59.2 0 M0 0 C19.23 0, 38.46 0, 59.2 0 M59.2 0 C59.2 16.37, 59.2 32.73, 59.2 81.6 M59.2 0 C59.2 27.94, 59.2 55.88, 59.2 81.6 M59.2 81.6 C42.8 81.6, 26.39 81.6, 0 81.6 M59.2 81.6 C44.75 81.6, 30.29 81.6, 0 81.6 M0 81.6 C0 61.8, 0 42, 0 0 M0 81.6 C0 58.73, 0 35.85, 0 0" stroke="#1e1e1e" stroke-width="1" fill="none"></path></g><g stroke-linecap="round" transform="translate(442.82868643828124 38.230347635862586) rotate(89.69198250086802 29.599990844726562 40.80000305175781)"><path d="M0 0 C23.21 0, 46.42 0, 59.2 0 M0 0 C20.88 0, 41.75 0, 59.2 0 M59.2 0 C59.2 28.86, 59.2 57.73, 59.2 81.6 M59.2 0 C59.2 22.3, 59.2 44.61, 59.2 81.6 M59.2 81.6 C44.14 81.6, 29.09 81.6, 0 81.6 M59.2 81.6 C42.29 81.6, 25.37 81.6, 0 81.6 M0 81.6 C0 61.55, 0 41.5, 0 0 M0 81.6 C0 53.08, 0 24.55, 0 0" stroke="#1e1e1e" stroke-width="1" fill="none"></path></g><g stroke-linecap="round" transform="translate(525.4294897807109 37.41653866554424) rotate(89.69198250086802 29.599990844726562 40.800003051757784)"><path d="M0 0 C23.1 0, 46.2 0, 59.2 0 M0 0 C22.92 0, 45.83 0, 59.2 0 M59.2 0 C59.2 16.53, 59.2 33.06, 59.2 81.6 M59.2 0 C59.2 25.9, 59.2 51.8, 59.2 81.6 M59.2 81.6 C43.58 81.6, 27.95 81.6, 0 81.6 M59.2 81.6 C46.78 81.6, 34.36 81.6, 0 81.6 M0 81.6 C0 49.95, 0 18.3, 0 0 M0 81.6 C0 64.92, 0 48.24, 0 0" stroke="#1e1e1e" stroke-width="1" fill="none"></path></g><g stroke-linecap="round" transform="translate(607.3520844878394 36.82346384672513) rotate(89.69198250086802 29.599990844726562 40.800003051757784)"><path d="M0 0 C22.63 0, 45.26 0, 59.2 0 M0 0 C12.53 0, 25.06 0, 59.2 0 M59.2 0 C59.2 21.76, 59.2 43.53, 59.2 81.6 M59.2 0 C59.2 25.24, 59.2 50.48, 59.2 81.6 M59.2 81.6 C36.1 81.6, 13.01 81.6, 0 81.6 M59.2 81.6 C41.92 81.6, 24.64 81.6, 0 81.6 M0 81.6 C0 50.82, 0 20.04, 0 0 M0 81.6 C0 60.52, 0 39.45, 0 0" stroke="#1e1e1e" stroke-width="1" fill="none"></path></g><g stroke-linecap="round" transform="translate(21.358549039900424 142.76184128696707) rotate(89.69198250086802 29.599990844726562 40.80000305175781)"><path d="M0 0 C15.18 0, 30.36 0, 59.2 0 M0 0 C16.76 0, 33.51 0, 59.2 0 M59.2 0 C59.2 17.06, 59.2 34.12, 59.2 81.6 M59.2 0 C59.2 32.54, 59.2 65.08, 59.2 81.6 M59.2 81.6 C39.4 81.6, 19.6 81.6, 0 81.6 M59.2 81.6 C47.27 81.6, 35.34 81.6, 0 81.6 M0 81.6 C0 56.06, 0 30.53, 0 0 M0 81.6 C0 56.17, 0 30.74, 0 0" stroke="#1e1e1e" stroke-width="1" fill="none"></path></g><g stroke-linecap="round" transform="translate(22.0250158877476 201.96751999601997) rotate(89.69198250086802 29.599990844726562 40.80000305175781)"><path d="M0 0 C19.99 0, 39.98 0, 59.2 0 M0 0 C12.64 0, 25.28 0, 59.2 0 M59.2 0 C59.2 17.6, 59.2 35.2, 59.2 81.6 M59.2 0 C59.2 30.79, 59.2 61.57, 59.2 81.6 M59.2 81.6 C45.6 81.6, 32 81.6, 0 81.6 M59.2 81.6 C44.25 81.6, 29.3 81.6, 0 81.6 M0 81.6 C0 61.69, 0 41.77, 0 0 M0 81.6 C0 64.72, 0 47.83, 0 0" stroke="#1e1e1e" stroke-width="1" fill="none"></path></g><g stroke-linecap="round" transform="translate(21.630991223431522 261.05101676782954) rotate(89.69198250086802 29.599990844726562 40.80000305175781)"><path d="M0 0 C20.5 0, 40.99 0, 59.2 0 M0 0 C19.13 0, 38.27 0, 59.2 0 M59.2 0 C59.2 16.9, 59.2 33.79, 59.2 81.6 M59.2 0 C59.2 18.38, 59.2 36.77, 59.2 81.6 M59.2 81.6 C43.19 81.6, 27.18 81.6, 0 81.6 M59.2 81.6 C36.85 81.6, 14.5 81.6, 0 81.6 M0 81.6 C0 61.11, 0 40.62, 0 0 M0 81.6 C0 50.51, 0 19.41, 0 0" stroke="#1e1e1e" stroke-width="1" fill="none"></path></g><g stroke-linecap="round" transform="translate(91.96225994143657 144.81719792684396) rotate(0 11.22505403776566 93.44858342843588)"><path d="M0 0 C7.88 0, 15.75 0, 22.45 0 M0 0 C5.9 0, 11.79 0, 22.45 0 M22.45 0 C22.45 44.43, 22.45 88.85, 22.45 186.9 M22.45 0 C22.45 47.15, 22.45 94.3, 22.45 186.9 M22.45 186.9 C14.06 186.9, 5.68 186.9, 0 186.9 M22.45 186.9 C14.55 186.9, 6.65 186.9, 0 186.9 M0 186.9 C0 148.81, 0 110.72, 0 0 M0 186.9 C0 125.74, 0 64.58, 0 0" stroke="#1e1e1e" stroke-width="1" fill="none"></path></g></svg>